<svg xmlns="http://www.w3.org/2000/svg" viewBox="0 0 197 304" width="197" height="304">
	<style>
		tspan { white-space:pre }
		.shp0 { fill: #2c2e35 } 
	</style>
	<path id="Path 1" class="shp0" d="M163.68,0.35c-8.47,0 -16.1,3.39 -21.92,8.7l-0.11,-0.11l-130.15,119.24c-6.7,6.26 -10.5,14.95 -10.5,24.06c0,9.09 3.8,17.78 10.5,23.93l130.15,119.36l0.11,-0.11c5.82,5.29 13.45,8.58 21.92,8.58c17.9,0 32.51,-14.51 32.51,-32.51c0,-9.42 -4.13,-17.9 -10.59,-23.83v-0.11l-103.91,-95.31l103.91,-95.33v-0.1c6.46,-5.95 10.59,-14.4 10.59,-23.95c0,-17.89 -14.61,-32.5 -32.51,-32.5z" />
</svg>